<svg width="258" height="73" viewBox="0 0 258 73" fill="none" xmlns="http://www.w3.org/2000/svg">
<rect x="5" y="19" width="253" height="54" fill="#A9A8A8"/>
<path d="M20.3376 43C19.9216 43 19.6496 42.808 19.5216 42.424L12.1296 19.816C11.9696 19.272 12.1616 19 12.7056 19H20.5296C20.9776 19 21.2496 19.208 21.3456 19.624L23.4096 28.648C23.6656 29.704 23.8896 30.744 24.0816 31.768C24.2736 32.792 24.4336 33.832 24.5616 34.888H24.7056C24.8656 33.8 25.0576 32.744 25.2816 31.72C25.5056 30.696 25.7456 29.64 26.0016 28.552L28.1136 19.624C28.2096 19.208 28.4816 19 28.9296 19H36.7056C37.2496 19 37.4416 19.272 37.2816 19.816L29.8416 42.424C29.7136 42.808 29.4416 43 29.0256 43H20.3376ZM52.5407 43C52.0607 43 51.8207 42.76 51.8207 42.28V19.72C51.8207 19.24 52.0607 19 52.5407 19H59.7407C60.2207 19 60.4607 19.24 60.4607 19.72V42.28C60.4607 42.76 60.2207 43 59.7407 43H52.5407ZM56.1407 16.6C54.7647 16.6 53.6607 16.248 52.8287 15.544C52.0287 14.84 51.6287 13.896 51.6287 12.712V11.56C51.6287 10.312 52.0287 9.352 52.8287 8.68C53.6607 8.008 54.7647 7.672 56.1407 7.672C57.5807 7.672 58.6847 8.008 59.4527 8.68C60.2527 9.352 60.6527 10.312 60.6527 11.56V12.712C60.6527 13.896 60.2527 14.84 59.4527 15.544C58.6847 16.248 57.5807 16.6 56.1407 16.6ZM91.5489 43C91.0689 43 90.8289 42.76 90.8289 42.28V28.408C90.8289 27.544 90.6689 26.904 90.3489 26.488C90.0289 26.04 89.4689 25.816 88.6689 25.816C87.8369 25.816 87.0209 26.072 86.2209 26.584C85.4209 27.096 84.7489 27.64 84.2049 28.216L83.4849 23.176C84.1569 22.472 84.9249 21.768 85.7889 21.064C86.6529 20.328 87.6449 19.704 88.7649 19.192C89.9169 18.68 91.2289 18.424 92.7009 18.424C94.9729 18.424 96.6689 19.048 97.7889 20.296C98.9089 21.512 99.4689 23.48 99.4689 26.2V42.28C99.4689 42.76 99.2289 43 98.7489 43H91.5489ZM77.1969 43C76.7169 43 76.4769 42.76 76.4769 42.28V25.288C76.4769 24.232 76.4449 23.256 76.3809 22.36C76.3489 21.464 76.3009 20.6 76.2369 19.768C76.1729 19.256 76.3969 19 76.9089 19H83.1009C83.2929 19 83.4529 19.048 83.5809 19.144C83.7089 19.208 83.7889 19.352 83.8209 19.576C83.9169 19.896 83.9969 20.264 84.0609 20.68C84.1249 21.064 84.1729 21.48 84.2049 21.928C84.2689 22.344 84.3009 22.776 84.3009 23.224L85.1169 26.44V42.28C85.1169 42.76 84.8769 43 84.3969 43H77.1969ZM126.9 43.576C122.708 43.576 119.668 42.744 117.78 41.08C115.924 39.384 114.996 36.872 114.996 33.544V28.936C114.996 25.48 115.924 22.872 117.78 21.112C119.668 19.32 122.644 18.424 126.708 18.424C130.612 18.424 133.54 19.272 135.492 20.968C137.444 22.632 138.42 25.144 138.42 28.504V32.248C138.42 32.728 138.18 32.968 137.7 32.968H123.492V34.312C123.492 35.272 123.732 36.024 124.212 36.568C124.692 37.08 125.492 37.336 126.612 37.336C127.508 37.336 128.228 37.208 128.772 36.952C129.316 36.664 129.588 36.232 129.588 35.656C129.588 35.24 129.828 35.032 130.308 35.032H137.172C137.652 35.032 137.892 35.272 137.892 35.752C137.892 38.472 137.012 40.456 135.252 41.704C133.524 42.952 130.74 43.576 126.9 43.576ZM123.492 28.552H130.02V28.36C130.02 27.048 129.764 26.12 129.252 25.576C128.772 25 127.956 24.712 126.804 24.712C125.588 24.712 124.724 25 124.212 25.576C123.732 26.12 123.492 27.048 123.492 28.36V28.552ZM165.431 43.576C161.239 43.576 158.199 42.744 156.311 41.08C154.455 39.384 153.527 36.872 153.527 33.544V28.936C153.527 25.48 154.455 22.872 156.311 21.112C158.199 19.32 161.175 18.424 165.239 18.424C169.143 18.424 172.071 19.272 174.023 20.968C175.975 22.632 176.951 25.144 176.951 28.504V32.248C176.951 32.728 176.711 32.968 176.231 32.968H162.023V34.312C162.023 35.272 162.263 36.024 162.743 36.568C163.223 37.08 164.023 37.336 165.143 37.336C166.039 37.336 166.759 37.208 167.303 36.952C167.847 36.664 168.119 36.232 168.119 35.656C168.119 35.24 168.359 35.032 168.839 35.032H175.703C176.183 35.032 176.423 35.272 176.423 35.752C176.423 38.472 175.543 40.456 173.783 41.704C172.055 42.952 169.271 43.576 165.431 43.576ZM162.023 28.552H168.551V28.36C168.551 27.048 168.295 26.12 167.783 25.576C167.303 25 166.487 24.712 165.335 24.712C164.119 24.712 163.255 25 162.743 25.576C162.263 26.12 162.023 27.048 162.023 28.36V28.552ZM204.058 43.576C201.786 43.576 199.962 43.272 198.586 42.664C197.242 42.056 196.266 41.064 195.658 39.688C195.082 38.28 194.794 36.408 194.794 34.072V26.104H191.53C191.05 26.104 190.81 25.864 190.81 25.384V19.72C190.81 19.24 191.05 19 191.53 19H195.082L195.946 13.288C196.042 12.84 196.298 12.616 196.714 12.616H202.714C203.194 12.616 203.434 12.856 203.434 13.336V19H208.906C209.386 19 209.626 19.24 209.626 19.72V25.384C209.626 25.864 209.386 26.104 208.906 26.104H203.434V33.4C203.434 34.296 203.61 35 203.962 35.512C204.346 35.992 204.938 36.232 205.738 36.232C206.186 36.232 206.666 36.2 207.178 36.136C207.69 36.04 208.25 35.896 208.858 35.704C209.114 35.608 209.306 35.624 209.434 35.752C209.594 35.848 209.674 36.024 209.674 36.28V41.992C209.674 42.376 209.482 42.648 209.098 42.808C208.394 43.064 207.578 43.256 206.65 43.384C205.754 43.512 204.89 43.576 204.058 43.576Z" fill="#4A4747"/>
</svg>
